<?xml version="1.0" standalone="no"?>
<!DOCTYPE svg PUBLIC "-//W3C//DTD SVG 20010904//EN"
 "http://www.w3.org/TR/2001/REC-SVG-20010904/DTD/svg10.dtd">
<svg version="1.0" xmlns="http://www.w3.org/2000/svg"
 width="261.000000pt" height="261.000000pt" viewBox="0 0 261.000000 261.000000"
 preserveAspectRatio="xMidYMid meet">
<metadata>
Created by potrace 1.11, written by Peter Selinger 2001-2013
</metadata>
<g transform="translate(0.000000,261.000000) scale(0.100000,-0.100000)"
fill="#000000" stroke="none">
<path d="M1300 2462 c0 -4 -10 -9 -22 -9 -13 -1 -24 -7 -26 -13 -2 -5 -12 -10
-23 -10 -10 0 -19 -5 -19 -12 0 -6 -3 -8 -7 -5 -3 4 -22 -3 -42 -15 -20 -13
-37 -22 -38 -21 -2 2 -51 -20 -109 -47 -59 -28 -110 -50 -114 -50 -4 0 -52
-21 -106 -47 -55 -25 -102 -46 -106 -45 -5 1 -8 -3 -8 -9 0 -5 -4 -8 -8 -5 -5
3 -23 -4 -40 -15 -18 -10 -36 -19 -41 -19 -5 0 -61 -25 -126 -55 -64 -30 -118
-55 -120 -55 -7 0 -161 -71 -215 -99 -50 -26 -55 -32 -55 -62 0 -39 0 -39 227
-139 81 -36 148 -70 148 -77 0 -6 -6 -24 -14 -40 -28 -56 -41 -101 -61 -208
-11 -57 -24 -220 -30 -370 -9 -246 -17 -390 -21 -397 -2 -3 -7 -44 -10 -90 -3
-45 -7 -99 -9 -118 -17 -142 -26 -333 -16 -343 6 -6 60 -13 121 -15 146 -6
143 -9 135 127 -3 58 -10 135 -16 171 -5 36 -11 101 -13 145 -3 44 -7 91 -10
105 -11 45 -17 171 -20 399 -3 192 0 242 18 316 2 6 6 28 10 50 18 93 66 204
90 205 5 0 52 -20 105 -44 153 -70 197 -90 346 -156 77 -34 168 -75 202 -91
l62 -29 63 29 c35 15 83 37 108 49 25 11 106 47 180 80 74 33 165 74 203 91
37 17 72 31 77 31 6 0 10 5 10 10 0 6 5 10 11 10 10 0 202 84 414 180 33 15
70 31 83 35 12 3 22 11 22 17 0 6 3 9 6 5 8 -8 64 20 65 33 1 6 1 19 1 30 0
11 0 25 -1 31 0 5 -31 24 -68 41 -38 16 -93 41 -123 55 -30 14 -73 33 -95 43
-42 19 -118 53 -200 91 -27 13 -52 24 -55 24 -3 1 -25 11 -50 22 -66 30 -265
121 -338 154 -35 16 -65 29 -67 29 -2 0 -36 15 -77 34 -138 65 -188 82 -188
68z"/>
<path d="M645 1342 c-4 -9 -9 -134 -12 -277 -6 -298 -5 -300 74 -381 135 -138
365 -214 633 -208 97 2 132 5 200 19 14 3 36 7 49 10 45 9 156 48 196 70 72
38 99 58 148 109 79 81 80 85 74 371 -5 221 -9 291 -19 300 -3 3 -342 -151
-462 -209 -41 -20 -76 -36 -80 -36 -3 0 -27 -10 -51 -21 -61 -29 -108 -22
-217 30 -48 22 -89 41 -92 41 -5 0 -91 40 -253 116 -40 19 -76 34 -80 34 -5 0
-29 11 -55 25 -42 22 -47 23 -53 7z"/>
</g>
</svg>
